<?xml version="1.0" encoding="UTF-8"?><svg enable-background="new 0 0 242 512" version="1.1" viewBox="0 0 242 512" xml:space="preserve" xmlns="http://www.w3.org/2000/svg"><path d="m1 171c1e-6 -5.0221 1e-6 -10.044 0.38326-15.741 0.46136-6.831 0.32524-13.003 0.75333-19.135 0.1221-1.7491 1.4863-4.2504 2.9587-4.923 6.8305-3.1201 11.405-8.6499 15.828-14.232 5.1438-6.4919 6.4402-14.438 7.0755-22.476 0.75712-9.5787 5.5564-16.588 13.708-21.408 6.8867-4.0713 14.321-3.6984 22.293-2.0313 0-5.1361-0.34768-9.8536 0.080192-14.5 0.66814-7.2548 3.5295-13.894 9.443-18.207 6.2948-4.5912 13.12-8.5729 20.073-12.117 11.48-5.8511 22.157-12.445 28.856-24.602 1.4975 7.0647 6.4287 10.966 11.619 14.301 9.7021 6.2333 19.533 12.304 29.601 17.919 9.5482 5.3254 15.589 12.68 16.345 23.824 0.29445 4.338 0.43812 8.6863 0.66293 13.285 0.70842-0.12821 1.4674-0.25916 2.2239-0.40347 9.2342-1.7617 17.371-0.041275 24.685 6.3853 7.2735 6.3904 8.3942 14.946 9.3197 23.522 1.486 13.77 9.7535 22.872 20.449 29.998 3.3597 2.2384 4.7263 3.9915 4.7209 7.9417-0.10753 78.635-0.080231 157.27-0.080231 235.91v4.1505c-3.6719 2.5795-6.9322 4.6401-9.935 7.0249-7.3181 5.8121-9.1958 14.878-12.865 22.756-2.8504 6.1204-4.0434 12.993-6.2617 19.432-2.6607 7.7234-7.7274 13.512-15.89 15.17-5.7697 1.1722-11.826 0.93317-16.765 1.2589-0.58067 6.1024-0.52019 12.672-1.9441 18.903-2.8022 12.262-12.748 17.911-23.359 21.794-11.416 4.1778-20.736 10.467-27.284 20.8-1.5294 2.4138-3.6437 4.457-5.7169 6.9442-1.2561-1.4493-2.2359-2.3415-2.9304-3.4178-7.4429-11.534-17.071-19.9-30.426-24.533-10.344-3.5881-20.121-9.3604-22.811-21.391-1.4256-6.3752-1.4637-13.061-2.1577-19.897 0.49228 0 0.041507-0.067382-0.383 0.009766-14.02 2.5477-26.068-1.4125-31.478-14.154-4.1723-9.828-7.2214-20.132-10.799-30.214-3.3556-9.4553-8.743-17.073-18.994-20.564 0-8.8926 0.045899-17.878-0.044871-26.862-0.01525-1.5094-0.62175-3.0129-0.95506-4.5191 0-5.0221 0-10.044 0.38327-15.741 0.45714-10.54 0.55029-20.405 0.56178-30.27 7.72e-4 -0.6626-0.61568-1.326-0.94506-1.989 2e-6 -10.354 2e-6 -20.708 0.38328-31.739 0.45714-10.542 0.55029-20.407 0.56179-30.272 7.73e-4 -0.66263-0.61568-1.326-0.94506-1.989-1e-6 -10.354-1e-6 -20.708 0.38328-31.739 0.45714-10.542 0.55028-20.407 0.56178-30.272 7.72e-4 -0.66263-0.61568-1.326-0.94506-1.989z" fill="#FD9113"/></svg>